<svg width="367" height="192" viewBox="0 0 367 192" fill="none" xmlns="http://www.w3.org/2000/svg">
<g clip-path="url(#clip0_703_101)" filter="url(#filter0_dd_703_101)">
<path d="M171 21C194.165 21 213 39.6954 213 62.6562C213 77.8084 206.159 86.5396 193.249 102.918C187.719 109.933 180.824 118.681 172.898 130.016C172.469 130.63 171.76 131 171 131C170.24 131 169.531 130.63 169.102 130.016C161.094 118.563 154.168 109.783 148.614 102.742C135.793 86.4889 129 77.825 129 62.6562C129 39.6954 147.835 21 171 21Z" fill="url(#paint0_linear_703_101)" stroke="url(#paint1_linear_703_101)" stroke-width="2"/>
<path d="M171 86C158.318 86 148 75.6822 148 63C148 50.3178 158.318 40 171 40C183.682 40 194 50.3178 194 63C194 75.6822 183.682 86 171 86Z" fill="white"/>
</g>
<defs>
<filter id="filter0_dd_703_101" x="88" y="0" width="166" height="192" filterUnits="userSpaceOnUse" color-interpolation-filters="sRGB">
<feFlood flood-opacity="0" result="BackgroundImageFix"/>
<feColorMatrix in="SourceAlpha" type="matrix" values="0 0 0 0 0 0 0 0 0 0 0 0 0 0 0 0 0 0 127 0" result="hardAlpha"/>
<feOffset dy="20"/>
<feGaussianBlur stdDeviation="20"/>
<feColorMatrix type="matrix" values="0 0 0 0 1 0 0 0 0 0.680498 0 0 0 0 0 0 0 0 0.29 0"/>
<feBlend mode="normal" in2="BackgroundImageFix" result="effect1_dropShadow_703_101"/>
<feColorMatrix in="SourceAlpha" type="matrix" values="0 0 0 0 0 0 0 0 0 0 0 0 0 0 0 0 0 0 127 0" result="hardAlpha"/>
<feOffset dy="5"/>
<feGaussianBlur stdDeviation="5"/>
<feColorMatrix type="matrix" values="0 0 0 0 1 0 0 0 0 0.680498 0 0 0 0 0 0 0 0 0.26 0"/>
<feBlend mode="normal" in2="effect1_dropShadow_703_101" result="effect2_dropShadow_703_101"/>
<feBlend mode="normal" in="SourceGraphic" in2="effect2_dropShadow_703_101" result="shape"/>
</filter>
<linearGradient id="paint0_linear_703_101" x1="171" y1="-22.8025" x2="171" y2="169.452" gradientUnits="userSpaceOnUse">
<stop offset="0.630208" stop-color="#FFAE00"/>
<stop offset="1" stop-color="#FFCD1E"/>
</linearGradient>
<linearGradient id="paint1_linear_703_101" x1="171" y1="20" x2="171" y2="132" gradientUnits="userSpaceOnUse">
<stop stop-color="#FF9F00"/>
<stop offset="1" stop-color="#FFB800"/>
</linearGradient>
<clipPath id="clip0_703_101">
<rect width="86" height="112" fill="white" transform="translate(128 20)"/>
</clipPath>
</defs>
</svg>
